# Blender 4.3.2
# www.blender.org
mtllib casa_pro2.mtl
o Plano
v -6.240644 5.558767 -0.020003
v 6.240644 5.558767 -0.020003
v -0.664376 -0.000000 -0.020003
v -0.664376 5.558767 4.324307
v -0.664376 0.000000 4.324309
v -0.664376 -0.000000 -4.324309
v -0.664376 6.681288 4.324307
v -0.664376 7.615733 -4.324309
v -0.664376 4.885573 -4.324309
v -0.664376 4.885575 4.324307
v -0.664376 5.558765 -4.324309
v -6.240644 4.885573 -4.324309
v -6.240644 5.558765 -4.324309
v 6.240644 4.885575 4.324307
v 6.240644 5.558767 4.324307
v 6.240644 5.558765 -4.324309
v 6.240644 4.885573 -4.324309
v -6.240644 4.885575 4.324307
v -6.240644 5.558767 4.324307
v -6.240645 6.681288 4.324307
v -6.240645 7.615733 -4.324309
v 6.240645 7.615733 -4.324309
v 6.240645 -0.000000 -4.324309
v -6.240645 -0.000000 -4.324309
v -6.240645 0.000000 4.324309
v 6.240645 7.150672 -0.020005
v 6.240644 4.885575 -0.020003
v -6.240645 7.150672 -0.020005
v -6.240645 -0.000000 -0.020003
v 6.240645 -0.000000 -0.020003
v -6.240644 4.885575 -0.020003
v -0.563802 6.681291 4.324307
v -0.563802 7.150672 -0.020005
v -0.563802 5.558768 -0.020003
v -0.563802 5.558768 4.324307
v -0.563802 4.885576 -0.020003
v -0.563802 4.885576 4.324307
v -0.563802 0.000001 4.324309
v -0.563802 0.000001 -0.020003
v 6.233518 6.028150 -0.020003
v 6.233518 5.558766 4.324307
v -0.563802 5.558766 4.324307
v -0.563802 6.028150 -0.020003
v -6.240646 7.815877 -4.302685
v -6.240646 7.350818 0.001619
v -0.664377 7.350818 0.001619
v -0.664377 7.815877 -4.302685
v -0.664377 6.881434 4.345932
v -6.240646 6.881434 4.345932
v 6.240644 7.815877 -4.302685
v 6.240644 7.350818 0.001619
v -0.563802 7.350819 0.001620
v -0.563802 6.881435 4.345932
v 6.233517 5.758914 4.345932
v 6.233517 6.228296 0.001621
v -0.563802 5.758914 4.345932
v -0.563802 6.228296 0.001621
v 7.020628 6.028150 -0.020003
v 7.020628 6.228296 0.001621
v 7.027756 7.150672 -0.020005
v 7.027756 7.350818 0.001619
v 7.027756 7.615733 -4.324309
v 0.223309 6.881435 4.345932
v 0.223309 6.681291 4.324307
v 0.223309 7.150672 -0.020005
v 0.223309 7.350819 0.001620
v 7.020628 5.558766 4.324307
v 7.027756 7.815877 -4.302685
v 7.020628 5.758914 4.345932
v 6.240645 7.042130 0.984586
v 6.240644 7.242276 1.006211
v -6.240645 6.572746 5.328899
v -0.664376 6.572746 5.328899
v -0.563802 7.042131 0.984586
v -0.563802 6.572749 5.328899
v -0.563802 6.772893 5.350524
v -0.563802 7.242277 1.006211
v -0.563802 5.450225 5.328899
v 6.233518 5.450225 5.328899
v -6.240646 6.772892 5.350524
v -0.664377 6.772892 5.350524
v -0.563802 5.650373 5.350524
v 6.233517 5.650373 5.350524
v 7.027756 7.042130 0.984586
v 7.027756 7.242276 1.006211
v 0.223309 6.772893 5.350524
v 0.223309 6.572749 5.328899
v 7.020628 5.650373 5.350524
v 7.020628 5.450225 5.328899
v -7.245475 7.615728 -4.324310
v -7.245475 7.150669 -0.020006
v -7.245475 6.681285 4.324307
v -7.245475 6.881433 4.345932
v -7.245475 6.772892 5.350523
v -7.245475 7.815876 -4.302685
v -7.245475 7.350815 0.001619
v -7.245475 6.572743 5.328898
v 6.240645 7.698997 -5.094959
v -0.664376 7.698997 -5.094959
v -6.240645 7.698997 -5.094959
v 6.240644 7.899144 -5.073337
v -0.664377 7.899144 -5.073337
v -6.240646 7.899144 -5.073337
v -7.245475 7.698995 -5.094962
v 7.027756 7.698997 -5.094959
v 7.027756 7.899144 -5.073337
v -7.245475 7.899139 -5.073337
v 5.347654 4.885576 -0.020003
v 5.347654 4.885576 4.324307
v 5.347654 -0.000000 -0.020003
v -0.664376 0.000000 3.398349
v -6.240644 5.558767 3.398348
v 6.240644 5.558767 3.398348
v 6.240644 4.885575 3.398348
v -6.240645 6.781334 3.398349
v -6.240645 0.000000 3.398349
v -6.240644 4.885575 3.398348
v -0.563802 6.781334 3.398349
v -0.563802 5.558768 3.398348
v -0.563802 4.885576 3.398348
v -0.563802 0.000001 3.398349
v -0.664377 6.981482 3.419971
v -6.240646 6.981482 3.419971
v -0.563802 6.981483 3.419971
v 0.223309 6.781334 3.398349
v 0.223309 6.981483 3.419971
v -7.245475 6.781332 3.398348
v -7.245475 6.981477 3.419971
v 5.347654 4.885576 3.398348
v -0.664376 0.203994 -4.324309
v -0.664376 0.203994 4.324309
v -6.240645 0.203994 4.324309
v 6.240645 0.203994 -4.324309
v -6.240645 0.203994 -4.324309
v 6.240645 0.203994 -0.020003
v -6.240645 0.203994 -0.020003
v -0.563802 0.203995 4.324309
v -0.563802 0.203995 -0.020003
v 5.347654 0.203995 -0.020003
v -0.563802 0.203995 3.398349
v -6.240645 0.203994 3.398349
v 5.347654 -0.000000 -0.020003
v 6.240645 -0.000000 -0.020003
v -0.563802 0.000001 -0.020003
v 5.347654 0.203995 -0.020003
v 6.240645 0.203994 -0.020003
v -0.563802 0.203995 -0.020003
v 5.347654 -0.000000 -0.020003
v 6.240645 -0.000000 -0.020003
v -0.563802 0.000001 -0.020003
v 5.347654 0.203995 -0.020003
v 6.240645 0.203994 -0.020003
v -0.563802 0.203995 -0.020003
v 5.347654 -0.000000 -0.020003
v 6.240645 -0.000000 -0.020003
v -0.563802 0.000001 -0.020003
v 5.347654 0.203995 -0.020003
v 6.240645 0.203994 -0.020003
v -0.563802 0.203995 -0.020003
v 5.347654 0.000000 4.324309
v 6.240645 0.000000 4.324309
v -0.563802 0.000001 4.324309
v 5.347654 0.203995 4.324309
v 6.240645 0.203994 4.324309
v -0.563802 0.203995 4.324309
v 6.240643 0.018174 3.398348
v 6.240643 0.018174 4.324309
v 5.347652 0.018175 4.324309
v 5.347652 0.018175 3.398348
v 6.240644 5.761250 4.324307
v -0.563802 5.761250 4.324307
v 6.240644 5.761250 3.398348
v -0.563802 5.761250 3.398348
v -0.563802 6.091881 -0.020003
v 6.240644 6.091880 -0.020003
v 6.233518 6.049481 -0.217437
v 6.233517 6.249628 -0.195813
v 7.020628 6.049481 -0.217437
v 7.020628 6.249628 -0.195813
v 1.406683 4.885576 -0.020003
v 3.377169 4.885576 -0.020003
v 1.406683 4.885576 4.324307
v 3.377169 4.885576 4.324307
v 1.406684 0.000001 -0.020003
v 3.377169 0.000001 -0.020003
v 3.377169 4.885576 3.398348
v 1.406683 4.885576 3.398348
v 3.377169 0.203995 -0.020003
v 1.406684 0.203995 -0.020003
v 1.406684 0.000001 -0.020003
v 3.377169 0.000001 -0.020003
v 3.377169 0.203995 -0.020003
v 1.406684 0.203995 -0.020003
v 1.406684 0.000001 -0.020003
v 3.377169 0.000001 -0.020003
v 3.377169 0.203995 -0.020003
v 1.406684 0.203995 -0.020003
v 1.406684 0.000001 -0.020003
v 3.377169 0.000001 -0.020003
v 3.377169 0.203995 -0.020003
v 1.406684 0.203995 -0.020003
v 1.406684 0.000001 4.324309
v 3.377169 0.000001 4.324309
v 3.377169 0.203995 4.324309
v 1.406684 0.203995 4.324309
v -0.664376 3.589382 -4.324309
v -0.664376 3.589382 4.324307
v 6.240644 3.589382 -4.324309
v 6.240644 3.589382 -0.020003
v -6.240644 3.589382 -0.020003
v -0.563802 3.589382 -0.020003
v -0.563802 3.589382 3.398349
v -6.240644 3.589382 3.398349
v -6.240644 3.589382 4.324307
v -6.240644 3.589382 -4.324309
v -0.563802 3.589382 4.324307
v 5.347654 3.589382 -0.020003
v 3.377169 3.589382 -0.020003
v 1.406683 3.589382 -0.020003
v -0.664376 4.885575 4.324307
v -6.240644 4.885575 4.324307
v -0.664376 3.589382 4.324307
v -6.240644 3.589382 4.324307
v -0.664376 3.597078 4.324307
v -6.240644 3.597078 4.324307
v -0.664376 1.391572 4.324309
v -6.240644 1.391572 4.324309
v -4.381889 3.597078 4.324307
v -2.523133 3.597078 4.324307
v -2.523133 1.391572 4.324309
v -4.381889 1.391572 4.324309
v 3.377169 0.203995 -0.239257
v 1.406684 0.203995 -0.239257
v 3.377169 3.589382 -0.239257
v 1.406683 3.589382 -0.239257
v -4.381889 3.597078 3.987495
v -2.523133 3.597078 3.987495
v -2.523133 1.391572 3.987495
v -4.381889 1.391572 3.987495
v -2.513312 3.597078 4.352095
v -2.513312 1.391572 4.352095
v -4.372068 3.597078 4.352095
v -4.372068 1.391572 4.352095
vn -0.0000 -0.9942 -0.1074
vn -0.0000 -0.0000 1.0000
vn -0.0000 -1.0000 -0.0000
vn 1.0000 -0.0000 -0.0000
vn -0.0000 -0.0000 -1.0000
vn -1.0000 -0.0000 -0.0000
vn -0.0000 0.1074 -0.9942
vn -0.0000 1.0000 -0.0000
vn -0.0000 0.9954 0.0963
vn -0.0000 0.9942 0.1074
vn -0.0000 -0.1074 0.9942
vt -3.394900 -3.394900
vt 0.085350 -3.394900
vt 4.394899 -2.560889
vt 4.394901 -3.394900
vt 4.394901 -2.560888
vt 4.394901 0.518017
vt 4.394901 4.394900
vt 0.085350 4.394900
vt -3.394900 -2.560889
vt 0.148120 -3.394900
vt 1.377936 -3.394900
vt 2.607752 -3.394900
vt 3.837568 -3.394900
vt -3.394900 4.394900
vt -3.394900 0.518017
vt 0.085350 4.394899
vt 0.085350 0.518017
vt 3.837568 0.518017
vt 2.607752 0.518017
vt 1.377936 0.518017
vt 0.148121 0.518017
vt 1.274835 -3.394900
vt 0.085350 -2.560889
vt 4.394901 -2.560889
vt 4.394899 0.518017
vt 4.217579 -3.394900
vt -1.074734 -3.394900
vt -1.074733 -3.394900
vt -2.234817 -3.394900
vt 0.000000 0.000000
vt 3.489728 -2.560889
s 1
usemtl Concreto.002
f 20/1/1 72/1/1 97/1/1 92/1/1
f 19/1/2 4/2/2 7/2/2 20/1/2
f 187/3/3 182/4/3 37/4/3 120/5/3
f 2/6/2 26/6/2 33/6/2 34/6/2
f 18/1/2 10/2/2 4/2/2 19/1/2
f 27/6/4 17/7/4 16/7/4 2/6/4
f 16/7/5 11/8/5 8/8/5 22/7/5
f 17/7/5 9/8/5 11/8/5 16/7/5
f 42/1/1 41/1/1 79/1/1 78/1/1
f 213/9/6 214/1/6 18/1/6 117/9/6
f 10/2/2 37/10/2 182/11/2 183/12/2 109/13/2 14/4/2 15/4/2 35/10/2 4/2/2
f 11/8/5 13/14/5 21/14/5 8/8/5
f 117/9/6 18/1/6 19/1/6 112/9/6
f 29/15/3 24/14/3 6/16/3 3/17/3
f 112/9/6 19/1/6 20/1/6 115/9/6
f 9/8/5 12/14/5 13/14/5 11/8/5
f 2/6/4 16/7/4 22/7/4 26/6/4
f 208/7/5 206/8/5 9/8/5 17/7/5
f 41/1/1 40/1/1 58/1/1 67/1/1
f 214/1/2 207/2/2 10/2/2 18/1/2
f 3/17/3 6/16/3 23/7/3 30/6/3 110/18/3 185/19/3 184/20/3 39/21/3
f 209/6/4 208/7/4 17/7/4 27/6/4
f 207/2/2 216/22/2 37/10/2 10/2/2
f 206/8/5 215/14/5 12/14/5 9/8/5
f 13/14/6 1/15/6 28/15/6 21/14/6
f 116/9/3 29/15/3 3/17/3 111/23/3
f 12/14/6 31/15/6 1/15/6 13/14/6
f 215/14/6 210/15/6 31/15/6 12/14/6
f 114/24/4 27/6/4 2/6/4 113/24/4
f 212/24/4 211/25/4 36/6/4 120/5/4
f 119/5/4 34/6/4 33/6/4 118/24/4
f 219/6/2 180/6/2 36/6/2 211/25/2
f 113/24/4 2/6/4 175/6/4 172/24/4
f 111/23/3 3/17/3 39/6/3 121/24/3
f 4/2/2 35/4/2 32/4/2 7/2/2
f 33/6/1 26/6/1 70/6/1 74/6/1
f 43/1/6 42/1/6 56/1/6 57/1/6
f 40/1/7 43/1/7 57/1/7 55/1/7
f 8/8/1 21/14/1 100/14/1 99/8/1
f 26/6/1 22/7/1 62/7/1 60/6/1
f 33/6/7 52/6/7 66/6/7 65/6/7
f 118/24/1 33/6/1 65/6/1 125/24/1
f 32/4/1 64/4/1 87/4/1 75/4/1
f 58/1/1 40/1/1 176/1/1 178/1/1
f 7/2/1 32/4/1 75/4/1 73/2/1
f 41/1/1 67/1/1 89/1/1 79/1/1
f 21/14/1 28/15/1 91/15/1 90/14/1
f 26/6/1 60/6/1 84/6/1 70/6/1
f 20/1/1 7/2/1 73/2/1 72/1/1
f 52/6/6 33/6/6 74/6/6 77/6/6
f 22/7/1 8/8/1 99/8/1 98/7/1
f 115/9/1 20/1/1 92/1/1 127/9/1
f 62/7/1 22/7/1 98/7/1 105/7/1
f 21/14/1 90/14/1 104/14/1 100/14/1
f 209/6/2 27/6/2 108/6/2 217/6/2
f 14/4/2 109/13/2 168/13/2 167/4/2
f 27/6/3 114/24/3 129/3/3 108/6/3
f 28/15/1 115/9/1 127/9/1 91/15/1
f 32/4/1 118/24/1 125/24/1 64/4/1
f 5/2/3 111/23/3 121/24/3 38/4/3
f 34/6/6 119/5/6 173/5/6 174/6/6
f 35/4/4 119/5/4 118/24/4 32/4/4
f 216/4/4 212/24/4 120/5/4 37/4/4
f 14/4/4 114/24/4 113/24/4 15/4/4
f 25/1/3 116/9/3 111/23/3 5/2/3
f 1/15/6 112/9/6 115/9/6 28/15/6
f 31/15/6 117/9/6 112/9/6 1/15/6
f 210/15/6 213/9/6 117/9/6 31/15/6
f 180/6/3 187/3/3 120/5/3 36/6/3
f 29/15/6 116/9/6 141/9/6 136/15/6
f 38/4/4 121/24/4 140/24/4 137/4/4
s 0
f 30/6/8 135/6/5 146/6/8 143/6/5
f 110/18/8 30/6/5 143/6/8 142/18/5
s 1
f 121/24/4 39/6/4 138/6/4 140/24/4
f 24/14/6 29/15/6 136/15/6 134/14/6
f 6/16/5 24/14/5 134/14/5 130/16/5
f 5/2/2 38/4/2 137/26/2 131/2/2
f 30/6/4 23/7/4 133/7/4 135/6/4
f 25/1/2 5/2/2 131/2/2 132/1/2
f 23/7/5 6/16/5 130/16/5 133/7/5
f 116/9/6 25/1/6 132/1/6 141/9/6
s 0
f 143/6/8 146/6/5 152/6/8 149/6/5
f 146/6/8 145/6/5 151/6/8 152/6/5
f 135/6/8 139/6/5 145/6/8 146/6/5
f 185/19/8 110/18/5 142/18/8 191/19/5
f 138/6/8 39/6/5 144/6/8 147/6/5
f 189/6/8 138/6/5 147/6/8 193/6/5
f 153/6/8 150/6/5 156/6/8 159/6/5
f 197/6/8 153/6/5 159/6/8 201/6/5
f 191/19/8 142/18/5 148/18/8 195/19/5
f 193/6/8 147/6/5 153/6/8 197/6/5
f 147/6/8 144/6/5 150/6/8 153/6/5
f 142/18/8 143/6/5 149/6/8 148/18/5
s 1
f 155/6/4 158/6/4 164/6/4 161/6/4
f 158/6/8 157/6/8 163/6/8 164/6/8
s 0
f 148/18/8 149/6/5 155/6/8 154/18/5
f 152/6/8 151/6/5 157/6/8 158/6/5
f 149/6/8 152/6/5 158/6/8 155/6/5
f 195/19/8 148/18/5 154/18/8 199/19/5
s 1
f 161/6/2 164/6/2 163/6/2 160/6/2
f 202/6/2 205/6/2 165/6/2 162/6/2
f 199/19/3 154/18/3 160/18/3 203/19/3
f 201/6/8 159/6/8 165/6/8 205/6/8
f 159/6/6 156/6/6 162/6/6 165/6/6
f 154/18/3 155/6/3 161/6/3 160/18/3
f 166/24/3 167/4/3 168/4/3 169/3/3
f 114/24/4 14/4/4 167/4/4 166/24/4
f 129/3/5 114/24/5 166/24/5 169/3/5
f 109/4/6 129/3/6 169/3/6 168/4/6
f 172/24/9 175/6/9 174/6/9 173/5/9
f 170/4/8 172/24/8 173/5/8 171/4/8
f 35/10/2 15/4/2 170/4/2 171/10/2
f 2/6/5 34/6/5 174/6/5 175/6/5
f 15/4/4 113/24/4 172/24/4 170/4/4
f 119/5/6 35/4/6 171/4/6 173/5/6
f 40/1/6 55/1/6 177/1/6 176/1/6
f 157/6/8 200/6/8 204/6/8 163/6/8
f 200/6/8 201/6/8 205/6/8 204/6/8
f 156/21/3 198/20/3 202/20/3 162/21/3
f 198/20/3 199/19/3 203/19/3 202/20/3
f 160/6/2 163/6/2 204/6/2 203/6/2
f 203/6/2 204/6/2 205/6/2 202/6/2
s 0
f 150/21/8 194/20/5 198/20/8 156/21/5
f 194/20/8 195/19/5 199/19/8 198/20/5
f 145/6/8 192/6/5 196/6/8 151/6/5
f 192/6/8 193/6/5 197/6/8 196/6/5
f 144/21/8 190/20/5 194/20/8 150/21/5
f 190/20/8 191/19/5 195/19/8 194/20/5
f 151/6/8 196/6/5 200/6/8 157/6/5
f 196/6/8 197/6/5 201/6/8 200/6/5
f 139/6/8 188/6/5 192/6/8 145/6/5
f 188/6/8 189/6/5 193/6/8 192/6/5
f 39/21/8 184/20/5 190/20/8 144/21/5
f 184/20/8 185/19/5 191/19/8 190/20/5
s 1
f 108/6/3 129/3/3 186/3/3 181/6/3
f 181/6/3 186/3/3 187/3/3 180/6/3
f 217/6/2 108/6/2 181/6/2 218/6/2
f 218/6/2 181/6/2 180/6/2 219/6/2
f 129/3/3 109/4/3 183/4/3 186/3/3
f 186/3/3 183/4/3 182/4/3 187/3/3
f 188/6/6 218/6/6 234/6/6 232/6/6
f 139/6/2 217/6/2 218/6/2 188/6/2
f 136/15/6 141/9/6 213/9/6 210/15/6
f 137/4/4 140/24/4 212/24/4 216/4/4
f 135/6/2 209/6/2 217/6/2 139/6/2
f 189/6/2 219/6/2 211/25/2 138/6/2
f 140/24/4 138/6/4 211/25/4 212/24/4
f 134/14/6 136/15/6 210/15/6 215/14/6
f 130/16/5 134/14/5 215/14/5 206/8/5
f 131/2/2 137/26/2 216/22/2 207/2/2
f 135/6/4 133/7/4 208/7/4 209/6/4
f 132/1/2 131/2/2 207/2/2 214/1/2
f 133/7/5 130/16/5 206/8/5 208/7/5
f 141/9/6 132/1/6 214/1/6 213/9/6
f 223/1/2 222/2/2 220/2/2 221/1/2
f 230/27/2 226/2/2 224/2/2 229/28/2
f 227/1/2 231/29/2 228/29/2 225/1/2
f 228/29/4 231/29/4 239/29/4 236/29/4
f 189/6/8 188/6/8 232/6/8 233/6/8
f 218/6/3 219/6/3 235/6/3 234/6/3
f 219/6/4 189/6/4 233/6/4 235/6/4
f 239/29/2 238/27/2 237/28/2 236/29/2
f 230/27/6 229/28/6 237/28/6 238/27/6
f 231/30/8 230/30/8 238/30/8 239/30/8
f 229/30/3 228/30/3 236/30/3 237/30/3
usemtl Techo.002
f 63/4/10 53/4/10 76/4/10 86/4/10
f 61/6/10 51/6/10 71/6/10 85/6/10
f 122/23/10 124/31/10 52/21/10 46/17/10
f 45/15/10 46/17/10 47/8/10 44/14/10
f 46/17/10 52/21/10 51/6/10 50/7/10 47/8/10
f 123/9/10 122/23/10 46/17/10 45/15/10
f 56/1/10 54/2/10 55/17/10 57/15/10
f 45/15/10 44/14/10 95/14/10 96/15/10
f 55/17/10 54/2/10 69/2/10 59/17/10
f 68/7/4 62/7/4 105/7/4 106/7/4
f 56/1/6 42/1/6 78/1/6 82/1/6
f 67/1/4 58/1/4 59/1/4 69/1/4
f 125/24/4 65/6/4 66/6/4 126/24/4
f 60/6/4 62/7/4 68/7/4 61/6/4
f 48/2/10 49/1/10 80/1/10 81/2/10
f 124/31/10 53/4/10 63/4/10 126/31/10
f 44/14/10 47/8/10 102/8/10 103/14/10
f 50/7/10 51/6/10 61/6/10 68/7/10
f 78/1/11 79/1/11 83/1/11 82/1/11
f 74/6/11 70/6/11 71/6/11 77/6/11
f 76/4/11 75/4/11 87/4/11 86/4/11
f 73/2/11 75/4/11 76/4/11 81/2/11
f 72/1/11 73/2/11 81/2/11 80/1/11
f 83/1/11 79/1/11 89/1/11 88/1/11
f 71/6/11 70/6/11 84/6/11 85/6/11
f 60/6/4 61/6/4 85/6/4 84/6/4
f 67/1/4 69/1/4 88/1/4 89/1/4
f 54/2/10 56/1/10 82/1/10 83/2/10
f 64/4/4 63/4/4 86/4/4 87/4/4
f 51/6/10 52/21/10 77/21/10 71/6/10
f 69/2/10 54/2/10 83/2/10 88/2/10
f 53/4/10 48/2/10 81/2/10 76/4/10
f 90/14/6 91/15/6 96/15/6 95/14/6
f 127/9/6 92/1/6 93/1/6 128/9/6
f 93/1/6 92/1/6 97/1/6 94/1/6
f 80/1/10 49/1/10 93/1/10 94/1/10
f 72/1/11 80/1/11 94/1/11 97/1/11
f 123/9/10 45/15/10 96/15/10 128/9/10
f 99/8/7 100/14/7 103/14/7 102/8/7
f 98/7/7 99/8/7 102/8/7 101/7/7
f 98/7/7 101/7/7 106/7/7 105/7/7
f 103/14/7 100/14/7 104/14/7 107/14/7
f 47/8/10 50/7/10 101/7/10 102/8/10
f 90/14/6 95/14/6 107/14/6 104/14/6
f 95/14/10 44/14/10 103/14/10 107/14/10
f 50/7/10 68/7/10 106/7/10 101/7/10
f 49/1/10 123/9/10 128/9/10 93/1/10
f 91/15/6 127/9/6 128/9/6 96/15/6
f 52/21/10 124/31/10 126/31/10 66/21/10
f 64/4/4 125/24/4 126/24/4 63/4/4
f 49/1/10 48/2/10 122/23/10 123/9/10
f 48/2/10 53/4/10 124/31/10 122/23/10
f 176/1/7 177/1/7 179/1/7 178/1/7
f 55/17/10 59/17/10 179/17/10 177/17/10
f 59/1/4 58/1/4 178/1/4 179/1/4
usemtl Puerta.002
f 232/6/2 234/6/2 235/6/2 233/6/2
usemtl Ventana.002
f 243/27/2 241/2/2 240/2/2 242/28/2
